<svg width="20" height="20" viewBox="0 0 20 20" fill="none" xmlns="http://www.w3.org/2000/svg">
<path fill-rule="evenodd" clip-rule="evenodd" d="M1.66669 10.0001C1.66669 5.39758 5.39752 1.66675 10 1.66675C14.6025 1.66675 18.3334 5.39758 18.3334 10.0001C18.3334 14.6026 14.6025 18.3334 10 18.3334C5.39752 18.3334 1.66669 14.6026 1.66669 10.0001ZM10 6.66675C10 6.44573 9.91222 6.23377 9.75594 6.07749C9.59966 5.92121 9.3877 5.83341 9.16669 5.83341C8.94567 5.83341 8.73371 5.92121 8.57743 6.07749C8.42115 6.23377 8.33335 6.44573 8.33335 6.66675V10.8334C8.33335 11.0544 8.42115 11.2664 8.57743 11.4227C8.73371 11.5789 8.94567 11.6667 9.16669 11.6667H13.3334C13.5544 11.6667 13.7663 11.5789 13.9226 11.4227C14.0789 11.2664 14.1667 11.0544 14.1667 10.8334C14.1667 10.6124 14.0789 10.4004 13.9226 10.2442C13.7663 10.0879 13.5544 10.0001 13.3334 10.0001H10V6.66675Z" fill="#00FF88"/>
</svg>
